#!OML:ASF F:\VICON\USERDATA\INSTALL\rory3\rory3.ASF
:FULLY-SPECIFIED
:DEGREES
2568
root 0.124935 16.7277 -0.278286 -10.8671 9.43841 -0.0283954
lowerback -0.397515 -1.66569 -2.50509
upperback 5.86006 -2.16388 0.598962
thorax 6.42923 -1.22293 1.894
lowerneck -7.41017 -10.3168 -16.4038
upperneck 30.2497 -15.7569 12.2679
head 13.8808 -7.5461 5.23125
rclavicle -2.33106e-015 4.87022e-015
rhumerus 28.2684 -23.1355 -25.2836
rradius 103.151
rwrist 22.925
rhand 21.3827 22.7876
rfingers 7.12502
rthumb 45.821 -0.381102
lclavicle -2.33106e-015 4.87022e-015
lhumerus 20.7654 12.8643 27.0995
lradius 97.8887
lwrist 3.9514
lhand 7.40835 28.2137
lfingers 7.12502
lthumb 32.6643 55.2841
rfemur 4.11834 1.15415 18.6581
rtibia 31.2077
rfoot -24.9743 -12.6014
rtoes -21.4113
lfemur -0.652397 -8.8552 -19.0981
ltibia 33.9138
lfoot -21.1908 -7.56661
ltoes -8.59594
2569
root 0.117955 16.7352 -0.274496 -10.7766 9.34126 -0.102143
lowerback -0.52208 -1.68236 -2.45566
upperback 5.81629 -2.18678 0.617425
thorax 6.45421 -1.23201 1.88114
lowerneck -7.40904 -10.2827 -16.4714
upperneck 30.3306 -15.6976 12.2479
head 13.91 -7.5305 5.24834
rclavicle 3.25681e-014 2.38542e-015
rhumerus 28.32 -23.0446 -25.3264
rradius 103.036
rwrist 22.8278
rhand 21.3904 22.8346
rfingers 7.12502
rthumb 45.8281 -0.331146
lclavicle 3.25681e-014 2.38542e-015
lhumerus 20.7134 12.8114 26.9647
lradius 97.7688
lwrist 4.06622
lhand 7.36028 28.2316
lfingers 7.12502
lthumb 32.6186 55.3115
rfemur 4.09039 1.20989 18.7966
rtibia 31.0255
rfoot -24.9244 -12.582
rtoes -21.1379
lfemur -0.697617 -8.83568 -18.9668
ltibia 33.8297
lfoot -21.2129 -7.53073
ltoes -8.63304
2570
root 0.110767 16.7436 -0.270675 -10.6764 9.20965 -0.158124
lowerback -0.614866 -1.65039 -2.39529
upperback 5.7292 -2.14435 0.6079
thorax 6.40933 -1.20606 1.83895
lowerneck -7.23357 -10.27 -16.5475
upperneck 30.3247 -15.7056 12.2912
head 13.8837 -7.54691 5.28547
rclavicle 3.64382e-014 -1.09332e-015
rhumerus 28.1926 -22.9575 -25.2499
rradius 102.766
rwrist 22.4844
rhand 21.2698 22.9786
rfingers 7.12502
rthumb 45.7161 -0.233208
lclavicle 3.64382e-014 -1.09332e-015
lhumerus 20.767 12.6133 26.7674
lradius 97.5283
lwrist 4.25745
lhand 7.38234 28.0708
lfingers 7.12502
lthumb 32.6396 55.1464
rfemur 4.05242 1.33923 18.9277
rtibia 30.8427
rfoot -24.8093 -12.6027
rtoes -20.8392
lfemur -0.735041 -8.79995 -18.847
ltibia 33.7325
lfoot -21.1382 -7.52972
ltoes -8.49276
2571
root 0.10502 16.7502 -0.266738 -10.6331 9.0658 -0.291207
lowerback -0.677044 -1.64219 -2.26042
upperback 5.66581 -2.13843 0.615641
thorax 6.37164 -1.19526 1.77124
lowerneck -7.16144 -10.2465 -16.5873
upperneck 30.3935 -15.6912 12.3097
head 13.902 -7.54746 5.30854
rclavicle 2.0818e-014 -6.75868e-015
rhumerus 28.1479 -22.8839 -25.1956
rradius 102.332
rwrist 21.8292
rhand 21.2287 23.0158
rfingers 7.12502
rthumb 45.6779 -0.21166
lclavicle 2.0818e-014 -6.75868e-015
lhumerus 20.7993 12.4962 26.4794
lradius 97.2011
lwrist 4.4122
lhand 7.23218 28.1074
lfingers 7.12502
lthumb 32.4967 55.2125
rfemur 4.07521 1.48106 19.1412
rtibia 30.6545
rfoot -24.7214 -12.5839
rtoes -20.4958
lfemur -0.724171 -8.80967 -18.6725
ltibia 33.6423
lfoot -21.1497 -7.38916
ltoes -8.79507
2572
root 0.0986484 16.7554 -0.261768 -10.5618 8.99925 -0.34302
lowerback -0.786677 -1.63729 -2.23427
upperback 5.61857 -2.13043 0.605095
thorax 6.3825 -1.1892 1.74373
lowerneck -7.10749 -10.25 -16.5581
upperneck 30.4227 -15.6985 12.259
head 13.8959 -7.55565 5.28464
rclavicle -3.6185e-014 -6.55989e-015
rhumerus 28.0921 -22.8769 -25.1476
rradius 101.739
rwrist 21.0979
rhand 21.2211 22.9597
rfingers 7.12502
rthumb 45.6708 -0.270692
lclavicle -3.6185e-014 -6.55989e-015
lhumerus 20.9408 12.3824 26.2569
lradius 96.7466
lwrist 4.78743
lhand 6.55029 28.3034
lfingers 7.12502
lthumb 31.8475 55.5398
rfemur 4.09015 1.54266 19.2382
rtibia 30.4821
rfoot -24.6367 -12.5721
rtoes -20.4594
lfemur -0.718525 -8.94136 -18.6232
ltibia 33.5492
lfoot -21.3165 -6.94095
ltoes -10.4668
2573
root 0.0933298 16.7603 -0.256595 -10.485 8.93654 -0.390459
lowerback -0.859647 -1.65436 -2.21785
upperback 5.54358 -2.15316 0.606243
thorax 6.34518 -1.19857 1.73332
lowerneck -7.12056 -10.2337 -16.526
upperneck 30.5299 -15.6552 12.1437
head 13.9221 -7.54518 5.24264
rclavicle 2.62978e-014 -4.27387e-015
rhumerus 28.157 -22.8427 -25.1226
rradius 100.874
rwrist 20.4326
rhand 21.127 23.111
rfingers 7.12502
rthumb 45.5834 -0.155031
lclavicle 2.62978e-014 -4.27387e-015
lhumerus 21.0523 12.3055 25.9324
lradius 96.135
lwrist 5.21845
lhand 6.36209 28.2983
lfingers 7.12502
lthumb 31.6683 55.5703
rfemur 4.08306 1.6063 19.3329
rtibia 30.3258
rfoot -24.5549 -12.5778
rtoes -20.2025
lfemur -0.712425 -9.0327 -18.5712
ltibia 33.4593
lfoot -21.3555 -6.67153
ltoes -11.3889
2574
root 0.0883431 16.7651 -0.251889 -10.3904 8.87053 -0.399136
lowerback -0.892633 -1.65598 -2.26168
upperback 5.42055 -2.15416 0.616535
thorax 6.23568 -1.19942 1.76956
lowerneck -7.12613 -10.2394 -16.555
upperneck 30.6855 -15.6488 12.0489
head 13.9846 -7.55589 5.21398
rclavicle 3.88236e-014 5.66536e-015
rhumerus 28.1844 -22.7802 -24.9932
rradius 99.8572
rwrist 19.8887
rhand 21.1721 23.0982
rfingers 7.12502
rthumb 45.6254 -0.150733
lclavicle 3.88236e-014 5.66536e-015
lhumerus 21.2097 12.243 25.6256
lradius 95.356
lwrist 5.42361
lhand 6.74263 28.0583
lfingers 7.12502
lthumb 32.0307 55.2581
rfemur 4.01187 1.64382 19.3802
rtibia 30.2024
rfoot -24.4045 -12.6978
rtoes -20.7936
lfemur -0.725067 -9.04841 -18.53
ltibia 33.3426
lfoot -21.2405 -6.71762
ltoes -10.7822
2575
root 0.0834755 16.7712 -0.248178 -10.2985 8.77833 -0.439287
lowerback -0.96252 -1.63944 -2.21279
upperback 5.32065 -2.1315 0.584217
thorax 6.16506 -1.18309 1.70972
lowerneck -7.15381 -10.2666 -16.5308
upperneck 30.8277 -15.6969 12.0024
head 14.0563 -7.57857 5.18475
rclavicle 2.13742e-014 9.34288e-015
rhumerus 28.2447 -22.8131 -24.8974
rradius 98.5763
rwrist 19.7565
rhand 20.943 23.0558
rfingers 7.12502
rthumb 45.4125 -0.279434
lclavicle 2.13742e-014 9.34288e-015
lhumerus 21.4889 12.1919 25.2264
lradius 94.4046
lwrist 5.54984
lhand 6.9261 27.8783
lfingers 7.12502
lthumb 32.2053 55.0428
rfemur 3.93228 1.69284 19.4699
rtibia 30.0833
rfoot -24.3141 -12.7771
rtoes -21.1771
lfemur -0.750777 -9.04668 -18.4539
ltibia 33.2196
lfoot -21.1919 -6.59146
ltoes -11.094
2576
root 0.0785777 16.7751 -0.24285 -10.2099 8.66917 -0.356021
lowerback -1.05759 -1.61769 -2.31918
upperback 5.22958 -2.09557 0.567182
thorax 6.12511 -1.16877 1.75263
lowerneck -7.11013 -10.2709 -16.6343
upperneck 30.8939 -15.7058 12.0151
head 14.0913 -7.59564 5.20945
rclavicle 2.02179e-014 -1.15295e-014
rhumerus 28.3732 -22.8641 -24.7609
rradius 97.1415
rwrist 19.9479
rhand 20.7869 23.069
rfingers 7.12502
rthumb 45.2674 -0.324423
lclavicle 2.02179e-014 -1.15295e-014
lhumerus 21.7057 12.0985 24.7252
lradius 93.248
lwrist 5.88899
lhand 6.68747 27.9458
lfingers 7.12502
lthumb 31.9782 55.1561
rfemur 3.94246 1.76922 19.4011
rtibia 29.9896
rfoot -24.3664 -12.6233
rtoes -21.3027
lfemur -0.708885 -9.08873 -18.5378
ltibia 33.0571
lfoot -21.195 -6.50687
ltoes -10.7822
